<?xml version="1.0" standalone="no"?>
<!DOCTYPE svg PUBLIC "-//W3C//DTD SVG 20010904//EN"
 "http://www.w3.org/TR/2001/REC-SVG-20010904/DTD/svg10.dtd">
<svg version="1.0" xmlns="http://www.w3.org/2000/svg"
 width="503.000000pt" height="496.000000pt" viewBox="0 0 503.000000 496.000000"
 preserveAspectRatio="xMidYMid meet">

<g transform="translate(0.000000,496.000000) scale(0.100000,-0.100000)"
fill="#000000" stroke="none">
<path d="M1795 4743 c-11 -3 -22 -8 -25 -12 -3 -4 -28 -19 -56 -32 -57 -28
-117 -75 -211 -163 -65 -61 -180 -224 -203 -286 -6 -19 -17 -45 -23 -57 -17
-37 -1 -37 25 0 55 82 188 204 299 275 36 23 69 42 73 42 4 0 22 11 40 25 18
14 40 25 49 25 10 0 17 5 17 11 0 5 -4 7 -10 4 -16 -10 -12 12 6 29 18 19 15
20 -21 6 -23 -9 -25 -13 -15 -25 10 -12 9 -15 -8 -15 -11 0 -23 -6 -25 -12 -3
-8 -6 -7 -6 4 -1 9 3 20 9 23 5 3 7 19 3 35 -4 24 1 36 28 65 18 19 38 33 44
31 10 -3 65 21 65 29 0 6 -27 5 -55 -2z m-171 -218 c-4 -8 -8 -15 -10 -15 -2
0 -4 7 -4 15 0 8 4 15 10 15 5 0 7 -7 4 -15z"/>
<path d="M524 4649 c-9 -15 53 -77 100 -100 27 -13 60 -19 100 -18 53 0 57 2
34 11 -34 12 -35 18 -6 42 l22 19 -23 9 c-19 7 -21 11 -11 23 11 13 4 15 -51
15 -35 1 -85 3 -111 5 -27 3 -50 0 -54 -6z m146 -69 c0 -5 -4 -10 -10 -10 -5
0 -10 5 -10 10 0 6 5 10 10 10 6 0 10 -4 10 -10z"/>
<path d="M3540 4654 c0 -5 14 -20 32 -34 35 -28 42 -35 78 -80 14 -17 36 -44
50 -59 14 -15 32 -40 40 -56 12 -22 16 -24 18 -11 2 10 -4 26 -14 37 -15 17
-16 22 -4 29 10 6 20 -2 38 -31 13 -22 26 -38 28 -36 7 7 -7 37 -17 37 -5 0
-9 9 -9 20 0 13 -9 22 -25 26 -29 7 -29 5 -11 39 13 25 15 25 24 8 16 -27 27
-7 13 23 -10 22 -9 30 4 44 14 15 14 18 1 23 -9 4 -23 -4 -34 -18 -17 -22 -21
-23 -32 -10 -14 17 -14 17 15 33 17 10 11 11 -35 12 -30 0 -79 3 -107 6 -29 4
-53 3 -53 -2z"/>
<path d="M1856 4634 c-12 -31 13 -44 44 -24 13 9 12 12 -4 25 -25 19 -32 19
-40 -1z"/>
<path d="M1968 4633 c6 -2 18 -2 25 0 6 3 1 5 -13 5 -14 0 -19 -2 -12 -5z"/>
<path d="M1931 4476 c-10 -12 -9 -20 4 -40 19 -28 45 -35 45 -11 0 8 -9 15
-20 15 -22 0 -26 20 -8 38 8 8 8 12 1 12 -6 0 -16 -6 -22 -14z"/>
<path d="M712 4420 c15 -24 33 -27 24 -4 -3 9 -6 18 -6 20 0 2 -7 4 -15 4 -13
0 -13 -3 -3 -20z"/>
<path d="M1875 4423 c-14 -11 -16 -17 -7 -20 6 -3 12 -11 12 -19 0 -9 11 -14
33 -13 17 0 26 3 20 6 -7 2 -13 10 -13 16 0 7 -6 19 -13 28 -11 15 -15 15 -32
2z"/>
<path d="M760 4370 c19 -13 30 -13 30 0 0 6 -10 10 -22 10 -19 0 -20 -2 -8
-10z"/>
<path d="M1816 4349 c-11 -10 -17 -21 -14 -24 7 -7 68 27 68 38 0 14 -35 6
-54 -14z"/>
<path d="M805 4330 c3 -5 10 -10 16 -10 5 0 9 5 9 10 0 6 -7 10 -16 10 -8 0
-12 -4 -9 -10z"/>
<path d="M1582 4314 c-7 -8 -8 -14 -3 -14 10 0 25 19 20 25 -2 1 -10 -3 -17
-11z"/>
<path d="M1540 4280 c0 -5 5 -10 11 -10 5 0 7 5 4 10 -3 6 -8 10 -11 10 -2 0
-4 -4 -4 -10z"/>
<path d="M1474 4222 c-72 -66 -134 -173 -134 -232 0 -57 70 -100 163 -100 41
0 53 24 16 33 -14 4 -20 11 -16 20 3 9 9 56 12 106 6 69 4 91 -5 91 -9 0 -8 7
3 23 14 22 20 97 8 97 -4 0 -24 -17 -47 -38z"/>
<path d="M4010 3876 c0 -6 118 -96 125 -96 14 0 3 41 -12 46 -38 13 -82 35
-88 44 -6 10 -25 14 -25 6z"/>
<path d="M1602 3718 c-27 -27 0 -133 43 -168 20 -16 32 -5 16 14 -7 8 -10 20
-6 26 4 6 -1 22 -10 36 -16 24 -15 27 1 45 9 10 15 20 13 22 -2 1 -13 10 -25
19 -16 14 -23 15 -32 6z"/>
<path d="M1236 3696 c-9 -15 -15 -33 -13 -39 3 -7 8 -4 13 8 4 11 12 23 17 26
5 4 8 12 5 19 -2 8 -11 2 -22 -14z"/>
<path d="M597 3653 c-12 -11 -8 -23 8 -23 8 0 15 7 15 15 0 16 -12 20 -23 8z"/>
<path d="M3070 3640 c0 -5 7 -7 15 -4 8 4 15 8 15 10 0 2 -7 4 -15 4 -8 0 -15
-4 -15 -10z"/>
<path d="M2920 3594 c-64 -43 -64 -44 -32 -44 18 0 55 11 82 25 48 24 49 26
33 45 -10 11 -18 20 -18 19 0 -1 -29 -21 -65 -45z"/>
<path d="M1200 3613 c0 -12 -4 -25 -10 -28 -5 -3 -10 -16 -10 -29 0 -12 -4
-26 -9 -31 -5 -6 -16 -37 -26 -69 -21 -74 -35 -363 -17 -352 7 4 12 17 12 28
0 19 34 103 61 152 6 10 20 34 30 54 11 19 18 37 14 40 -3 3 -5 0 -5 -6 0 -7
-6 -12 -14 -12 -8 0 -16 -6 -19 -12 -2 -7 -8 -10 -12 -6 -4 4 -3 14 3 21 7 8
10 35 7 68 -5 49 -2 51 11 9 11 -33 23 16 17 68 -7 61 -32 141 -33 105z"/>
<path d="M570 3605 c0 -8 -4 -15 -10 -15 -5 0 -10 -9 -10 -21 0 -12 -6 -35
-14 -52 -19 -42 -54 -149 -62 -193 -3 -19 -10 -37 -15 -40 -5 -3 -9 -12 -9
-21 0 -9 22 20 49 65 59 99 64 109 68 147 7 76 11 145 7 145 -2 0 -4 -7 -4
-15z"/>
<path d="M3141 3546 c-13 -16 -8 -20 29 -29 21 -5 25 -2 26 18 2 20 -3 25 -21
25 -12 0 -28 -6 -34 -14z"/>
<path d="M3530 3515 c-7 -8 -8 -15 -2 -15 5 0 15 7 22 15 7 8 8 15 2 15 -5 0
-15 -7 -22 -15z"/>
<path d="M3470 3474 c-24 -13 -24 -13 18 -14 46 0 52 4 24 19 -12 6 -25 5 -42
-5z"/>
<path d="M2205 3472 c-28 -10 -65 -35 -65 -45 0 -5 26 -7 58 -6 31 1 67 -1 80
-5 15 -5 27 -2 38 8 14 15 14 16 -4 16 -13 0 -19 6 -18 18 1 13 -7 17 -34 19
-19 1 -44 -2 -55 -5z m45 -12 c0 -5 -4 -10 -9 -10 -6 0 -13 5 -16 10 -3 6 1
10 9 10 9 0 16 -4 16 -10z"/>
<path d="M3032 3408 c-7 -7 -12 -20 -12 -29 0 -10 -4 -21 -10 -24 -12 -7 -13
-45 -2 -45 5 0 26 13 48 30 21 16 50 30 64 30 20 0 25 5 26 25 2 24 -1 25 -50
25 -29 0 -57 -5 -64 -12z"/>
<path d="M680 3340 c-53 -76 -59 -87 -117 -203 -24 -49 -42 -94 -41 -100 1 -7
-5 -23 -14 -37 -64 -96 -79 -405 -32 -631 22 -105 49 -207 72 -269 3 -8 9 71
13 177 8 190 28 324 67 445 12 37 13 54 5 67 -7 11 -8 23 -2 32 7 11 11 11 17
1 12 -18 35 78 27 114 -6 27 -5 27 8 11 13 -16 15 -16 21 -1 11 28 6 57 -11
70 -15 10 -16 15 -5 26 11 11 15 10 23 -5 13 -23 32 -11 24 14 -4 11 -8 49
-10 85 -2 48 -7 68 -20 78 -22 16 -12 36 14 29 14 -3 20 2 25 24 4 15 9 36 12
46 4 13 -1 12 -22 -8 -15 -14 -31 -25 -35 -25 -16 0 -9 30 12 59 12 16 19 37
17 47 -3 14 -15 3 -48 -46z"/>
<path d="M1610 3370 c0 -5 4 -10 9 -10 6 0 13 5 16 10 3 6 -1 10 -9 10 -9 0
-16 -4 -16 -10z"/>
<path d="M1553 3313 c-32 -40 -57 -135 -51 -188 3 -26 6 -21 25 37 13 37 31
76 40 86 62 64 72 80 55 86 -9 3 -22 8 -28 11 -7 3 -25 -11 -41 -32z"/>
<path d="M2240 3312 c0 -5 -20 -8 -44 -8 -31 1 -53 -6 -73 -20 -25 -19 -28
-28 -31 -84 -4 -79 7 -92 46 -52 18 18 51 36 87 46 52 16 56 18 39 31 -26 19
-3 45 24 29 19 -12 45 -7 37 6 -3 5 -12 7 -20 3 -9 -3 -15 1 -15 11 0 9 -8 16
-17 16 -16 1 -16 2 1 15 19 14 19 15 -7 15 -15 0 -27 -4 -27 -8z"/>
<path d="M3617 3240 c7 -25 23 -37 23 -17 0 8 -6 20 -14 26 -12 10 -13 8 -9
-9z"/>
<path d="M1669 3190 c-26 -26 -30 -36 -25 -62 11 -54 72 -137 171 -228 l37
-35 -16 32 c-20 39 -20 44 -1 37 8 -4 15 -1 15 4 0 17 -41 82 -52 82 -5 0 -8
6 -5 13 2 6 -3 26 -12 42 -8 17 -25 54 -37 84 -11 30 -26 57 -32 59 -7 2 -26
-10 -43 -28z"/>
<path d="M3644 3192 c-5 -4 -15 -43 -21 -87 -7 -44 -21 -107 -32 -140 -11 -33
-21 -70 -21 -82 0 -13 -4 -23 -9 -23 -4 0 -20 -26 -34 -57 -14 -32 -36 -73
-47 -90 -12 -18 -18 -33 -13 -33 15 0 136 131 163 177 14 23 33 43 42 43 24 0
30 16 12 30 -16 14 -11 63 8 87 5 7 7 17 4 22 -4 6 -1 19 6 30 10 16 9 25 -2
48 -32 62 -46 81 -56 75z m16 -57 c0 -8 -4 -15 -10 -15 -5 0 -10 7 -10 15 0 8
5 15 10 15 6 0 10 -7 10 -15z m-10 -205 c0 -5 -2 -10 -4 -10 -3 0 -8 5 -11 10
-3 6 -1 10 4 10 6 0 11 -4 11 -10z"/>
<path d="M2210 3083 c-53 -20 -65 -77 -27 -133 27 -41 47 -49 47 -21 0 36 42
48 90 26 22 -10 40 -23 40 -28 0 -6 3 -8 6 -5 7 8 -18 48 -31 48 -31 1 -37 17
-21 55 9 21 13 42 9 46 -11 10 -95 19 -113 12z m80 -48 c0 -16 -6 -25 -15 -25
-9 0 -15 9 -15 25 0 16 6 25 15 25 9 0 15 -9 15 -25z"/>
<path d="M2338 3003 c6 -2 18 -2 25 0 6 3 1 5 -13 5 -14 0 -19 -2 -12 -5z"/>
<path d="M3736 2941 c-4 -7 -5 -15 -2 -18 9 -9 19 4 14 18 -4 11 -6 11 -12 0z"/>
<path d="M3710 2836 c0 -61 3 -67 20 -35 8 15 8 24 1 33 -6 8 -9 20 -5 29 3 8
1 18 -5 22 -7 4 -11 -13 -11 -49z"/>
<path d="M3760 2876 c0 -8 5 -18 10 -21 6 -3 10 1 10 9 0 8 -4 18 -10 21 -5 3
-10 -1 -10 -9z"/>
<path d="M1691 2833 c30 -40 84 -93 95 -93 6 0 17 -7 24 -15 7 -8 19 -15 27
-15 13 0 13 3 3 15 -8 10 -9 15 -2 15 6 0 16 10 23 21 10 20 9 21 -15 17 -15
-3 -30 0 -34 7 -7 12 -109 65 -125 65 -5 0 -4 -8 4 -17z"/>
<path d="M3710 2735 c-10 -20 -11 -28 -2 -37 16 -16 15 -28 -3 -28 -11 0 -15
-12 -15 -47 0 -27 -3 -66 -6 -88 -9 -64 13 -19 37 76 15 62 17 84 8 89 -7 5
-9 18 -5 34 8 33 3 33 -14 1z"/>
<path d="M2700 2705 c-14 -8 -42 -14 -62 -15 -46 0 -43 -23 4 -39 39 -14 138
-14 138 -1 0 6 -5 10 -10 10 -11 0 8 40 25 52 19 14 -70 7 -95 -7z"/>
<path d="M1860 2700 c0 -5 5 -10 11 -10 5 0 7 5 4 10 -3 6 -8 10 -11 10 -2 0
-4 -4 -4 -10z"/>
<path d="M796 2588 c-5 -13 -9 -37 -27 -143 -16 -92 -23 -542 -9 -590 48 -167
97 -282 118 -278 6 2 9 -4 6 -11 -3 -8 7 -32 21 -53 15 -21 24 -29 20 -18 -14
35 -26 155 -33 325 -7 177 2 282 31 337 21 40 21 53 2 53 -23 0 -29 26 -14 62
10 24 10 33 1 36 -7 2 -12 16 -11 30 0 15 3 21 6 15 2 -7 9 -13 14 -13 11 0
12 27 2 32 -12 5 -103 184 -103 201 0 21 -19 32 -24 15z"/>
<path d="M2002 2456 c2 -36 10 -72 16 -78 10 -10 12 2 9 62 -2 48 -8 75 -17
78 -10 4 -12 -11 -8 -62z"/>
<path d="M2892 2488 c-9 -9 -12 -81 -12 -262 1 -194 3 -247 12 -231 10 17 19
78 18 125 -2 187 0 361 5 370 9 14 -8 13 -23 -2z"/>
<path d="M3637 2400 c-17 -53 -26 -99 -22 -113 5 -16 4 -18 -3 -8 -8 11 -15 3
-32 -35 -12 -27 -31 -67 -41 -88 -24 -50 -24 -51 6 -29 13 10 25 26 25 35 0
10 5 15 13 12 7 -2 37 14 66 38 29 23 47 44 42 46 -6 2 -11 10 -11 18 0 8 -7
14 -15 14 -16 0 -20 16 -6 24 5 3 14 -1 21 -9 7 -8 19 -15 27 -15 12 0 14 7 9
28 -4 15 -11 47 -16 72 -14 74 -22 100 -29 100 -3 0 -19 -41 -34 -90z"/>
<path d="M2236 2462 c-8 -14 17 -119 40 -168 l19 -39 3 57 c2 45 8 61 24 72
11 8 17 19 13 25 -3 6 5 15 19 21 41 15 30 30 -21 30 -27 0 -58 3 -69 6 -12 3
-25 1 -28 -4z"/>
<path d="M3726 2441 c-4 -7 -5 -15 -2 -18 9 -9 19 4 14 18 -4 11 -6 11 -12 0z"/>
<path d="M1576 2360 c3 -19 10 -53 14 -75 5 -22 13 -65 19 -95 6 -30 17 -86
26 -125 9 -38 21 -92 26 -120 13 -61 23 -102 43 -180 8 -33 24 -105 36 -160
20 -93 30 -137 50 -225 4 -19 17 -80 29 -135 39 -180 71 -310 81 -327 6 -10
10 -30 10 -46 0 -15 4 -32 8 -37 5 -6 15 -30 22 -55 8 -25 22 -63 32 -85 l18
-40 0 33 c0 35 2 37 31 22 16 -9 19 -7 19 15 0 20 -8 29 -35 41 -19 8 -35 17
-35 20 0 3 5 2 11 -1 17 -11 49 31 49 65 0 16 9 39 19 49 14 14 16 22 8 30
-15 15 -27 14 -27 -3 0 -17 -27 -29 -35 -16 -4 6 -15 10 -26 10 -28 0 -23 19
11 38 16 9 30 22 30 29 0 7 8 16 18 22 15 9 14 13 -14 43 -73 78 -86 97 -128
183 -42 85 -69 180 -96 325 -15 81 -38 194 -50 240 -5 19 -14 67 -20 105 -26
169 -73 332 -126 440 -23 46 -24 47 -18 15z m349 -1240 c3 -5 1 -10 -4 -10 -6
0 -11 5 -11 10 0 6 2 10 4 10 3 0 8 -4 11 -10z m50 -52 c28 -24 33 -51 9 -46
-9 2 -22 18 -29 36 -16 38 -14 39 20 10z m-1 -206 c33 -18 33 -18 16 -40 -10
-12 -21 -22 -24 -22 -7 0 -36 56 -36 70 0 14 5 13 44 -8z"/>
<path d="M946 2308 c15 -49 24 -68 32 -68 5 0 7 14 4 30 -2 17 -8 30 -13 30
-5 0 -9 7 -9 15 0 8 -5 15 -11 15 -6 0 -8 -9 -3 -22z"/>
<path d="M1861 2154 c-1 -115 22 -389 39 -459 5 -22 10 -60 10 -86 0 -25 4
-49 8 -55 5 -5 15 -36 22 -69 18 -82 78 -218 113 -255 9 -11 17 -24 17 -30 0
-6 17 -29 37 -51 l37 -40 15 26 c11 17 21 23 34 19 11 -3 3 9 -20 33 -21 21
-40 34 -42 30 -2 -5 2 -14 8 -20 6 -6 11 -22 11 -37 l0 -25 -20 25 c-21 27
-27 80 -9 80 5 0 -1 15 -14 33 -75 100 -152 371 -187 651 -6 49 -13 92 -15 96
-4 7 -24 115 -35 195 -6 40 -7 27 -9 -61z"/>
<path d="M3678 1933 c7 -3 16 -2 19 1 4 3 -2 6 -13 5 -11 0 -14 -3 -6 -6z"/>
<path d="M3582 1870 c-12 -11 -24 -20 -27 -20 -3 0 -11 -5 -18 -10 -7 -6 -23
-19 -37 -30 l-25 -19 23 -1 c13 0 43 9 68 20 38 18 44 25 44 50 0 36 0 36 -28
10z"/>
<path d="M1067 1723 c4 -94 18 -203 35 -268 13 -48 60 -152 82 -180 14 -19 15
-16 16 38 0 54 2 58 20 52 19 -6 20 -3 16 37 -3 24 -12 60 -20 80 -20 46 -20
58 -2 58 20 0 32 41 15 51 -43 24 -54 38 -42 50 10 10 16 9 28 -1 14 -11 17
-10 22 8 3 12 10 22 16 22 6 0 1 9 -11 20 -12 11 -28 20 -36 20 -8 0 -18 5
-21 10 -6 10 -111 90 -118 90 -2 0 -2 -39 0 -87z m140 -39 c-3 -3 -12 -4 -19
-1 -8 3 -5 6 6 6 11 1 17 -2 13 -5z"/>
<path d="M3398 1564 c-5 -4 -8 -20 -8 -35 0 -16 -4 -38 -9 -51 -5 -13 -17 -57
-26 -98 -32 -149 -36 -167 -56 -265 -11 -55 -23 -111 -26 -125 -7 -29 74 74
144 183 45 70 52 87 30 68 -16 -13 -27 -5 -27 21 0 10 -5 18 -11 18 -7 0 -10
14 -7 35 2 19 -1 36 -6 38 -13 4 -8 87 5 103 12 14 8 120 -3 108z m22 -353 c0
-5 -7 -11 -15 -15 -9 -3 -15 0 -15 9 0 8 7 15 15 15 8 0 15 -4 15 -9z m-40
-45 c0 -3 -4 -8 -10 -11 -5 -3 -10 -1 -10 4 0 6 5 11 10 11 6 0 10 -2 10 -4z"/>
<path d="M2156 1490 c3 -25 7 -51 10 -57 5 -18 44 -16 44 2 0 8 -4 15 -9 15
-5 0 -11 10 -14 23 -4 12 -13 31 -22 42 -14 19 -15 17 -9 -25z"/>
<path d="M2180 1389 c0 -15 7 -29 15 -33 18 -7 18 2 0 34 l-14 25 -1 -26z"/>
<path d="M1219 1328 c-6 -80 -5 -97 8 -86 15 12 18 84 3 93 -5 3 -10 0 -11 -7z"/>
<path d="M2673 1255 c-13 -29 1 -34 17 -6 12 23 13 31 3 31 -5 0 -13 -11 -20
-25z"/>
<path d="M1250 1190 c0 -5 5 -10 11 -10 5 0 7 5 4 10 -3 6 -8 10 -11 10 -2 0
-4 -4 -4 -10z"/>
<path d="M2187 1093 c-16 -16 -5 -25 24 -19 25 5 30 3 25 -9 -5 -13 -2 -14 17
-3 19 10 20 13 5 16 -10 2 -18 8 -18 13 0 10 -43 12 -53 2z"/>
<path d="M2055 980 c3 -5 11 -10 16 -10 6 0 7 5 4 10 -3 6 -11 10 -16 10 -6 0
-7 -4 -4 -10z"/>
<path d="M2105 950 c3 -5 8 -10 11 -10 2 0 4 5 4 10 0 6 -5 10 -11 10 -5 0 -7
-4 -4 -10z"/>
<path d="M2080 831 c0 -11 5 -23 10 -26 6 -4 10 5 10 19 0 14 -4 26 -10 26 -5
0 -10 -9 -10 -19z"/>
<path d="M2030 655 c0 -8 5 -15 10 -15 6 0 10 7 10 15 0 8 -4 15 -10 15 -5 0
-10 -7 -10 -15z"/>
<path d="M2050 560 c0 -11 5 -20 10 -20 6 0 10 9 10 20 0 11 -4 20 -10 20 -5
0 -10 -9 -10 -20z"/>
</g>
</svg>
