<?xml version="1.0" standalone="no"?>
<!DOCTYPE svg PUBLIC "-//W3C//DTD SVG 20010904//EN"
 "http://www.w3.org/TR/2001/REC-SVG-20010904/DTD/svg10.dtd">
<svg version="1.0" xmlns="http://www.w3.org/2000/svg"
 width="503.000000pt" height="496.000000pt" viewBox="0 0 503.000000 496.000000"
 preserveAspectRatio="xMidYMid meet">

<g transform="translate(0.000000,496.000000) scale(0.100000,-0.100000)"
fill="#000000" stroke="none">
<path d="M3020 4796 c0 -4 104 -66 163 -98 35 -18 67 -47 67 -60 0 -15 -68 -8
-111 12 -24 11 -64 20 -89 20 -25 0 -74 7 -110 15 -68 15 -250 20 -250 8 0 -5
15 -17 34 -28 48 -28 112 -75 154 -111 24 -21 33 -36 29 -47 -8 -22 -35 -21
-132 4 -53 14 -127 23 -216 26 -189 8 -439 -20 -439 -49 0 -14 -38 -9 -54 7
-16 17 -11 45 8 45 7 0 24 12 39 28 14 15 51 40 81 56 31 16 65 40 77 52 l22
24 -64 0 c-98 -1 -249 -17 -263 -29 -7 -6 -27 -8 -43 -5 -33 6 -74 -11 -131
-54 -24 -19 -30 -27 -20 -33 18 -12 30 -11 23 1 -3 6 3 10 14 10 34 0 53 11
41 25 -7 9 -6 16 4 24 16 14 71 -3 61 -19 -12 -19 25 -10 46 11 15 15 24 18
32 10 6 -6 21 -11 34 -11 38 0 28 -34 -21 -71 -55 -42 -74 -69 -49 -69 15 0
15 -2 4 -9 -22 -14 -22 -41 0 -41 10 0 19 -7 19 -15 0 -22 -27 -18 -40 5 -11
21 -40 28 -40 10 0 -13 22 -53 34 -62 5 -3 24 -4 42 -1 18 3 67 2 108 -2 91
-8 94 -16 37 -92 -22 -28 -45 -61 -51 -73 -18 -33 -42 -119 -36 -129 3 -5 -1
-14 -9 -21 -11 -9 -15 -33 -15 -89 0 -145 79 -282 190 -332 38 -17 57 -20 118
-14 41 3 96 15 124 26 l50 20 55 -26 c66 -30 136 -33 224 -8 57 16 65 22 110
82 68 92 84 144 83 266 0 110 -11 141 -104 298 -23 37 -38 72 -35 77 4 6 44
10 91 10 86 0 162 -19 247 -62 83 -42 58 0 -92 152 -65 66 -126 120 -135 120
-22 0 -31 26 -17 44 13 16 32 12 171 -33 47 -16 96 -31 110 -34 14 -4 48 -21
76 -39 28 -18 66 -42 85 -52 19 -10 53 -34 75 -52 23 -18 52 -38 65 -45 24
-11 128 -126 162 -180 11 -16 25 -29 33 -29 19 0 19 54 0 69 -8 7 -24 33 -36
59 -26 55 -93 146 -132 180 -16 13 -28 30 -28 37 0 15 -161 159 -217 194 -75
47 -263 116 -263 97z m-497 -377 c46 -24 175 -126 230 -182 97 -98 176 -237
135 -237 -16 0 -75 36 -120 72 -47 37 -252 138 -282 138 -33 0 -202 -86 -304
-154 -46 -31 -89 -56 -97 -56 -7 0 -15 13 -17 28 -3 20 4 36 24 57 15 17 28
33 28 37 0 17 124 150 178 192 71 54 172 116 190 116 7 0 23 -5 35 -11z m79
-431 c51 -46 89 -91 105 -123 14 -27 34 -61 44 -74 11 -13 19 -32 19 -42 0
-29 -35 -23 -62 10 -34 43 -184 141 -215 141 -40 0 -161 -76 -226 -142 -21
-21 -57 -24 -57 -4 0 7 18 46 40 87 40 73 155 202 195 220 39 17 76 0 157 -73z
m-505 -110 c-3 -8 -6 -5 -6 6 -1 11 2 17 5 13 3 -3 4 -12 1 -19z"/>
<path d="M1826 4764 c-53 -19 -54 -22 -4 -20 24 1 44 6 45 12 1 5 12 12 25 16
23 6 23 6 -2 6 -14 0 -43 -6 -64 -14z"/>
<path d="M1705 4710 c-27 -16 -43 -30 -35 -30 8 0 30 9 48 20 42 26 60 26 37
0 -17 -19 -17 -19 8 -7 20 9 23 14 13 29 -14 23 -12 23 -71 -12z"/>
<path d="M848 4672 c-186 -1 -338 -6 -338 -10 0 -4 24 -8 52 -9 175 -2 203 -4
188 -13 -13 -9 -12 -12 5 -26 20 -15 20 -15 -4 -35 -26 -22 -26 -24 9 -38 21
-8 14 -10 -38 -10 -39 -1 -61 -5 -57 -11 8 -13 96 -13 130 0 14 5 76 10 138
11 92 1 122 -3 169 -20 31 -12 59 -29 62 -37 7 -18 -96 -121 -130 -130 -13 -3
-49 5 -85 21 -83 34 -149 55 -149 47 0 -4 -4 -2 -8 5 -4 6 -20 15 -36 19 -26
6 -28 5 -21 -15 8 -27 -3 -27 -26 1 -11 11 -22 18 -26 15 -14 -15 40 -57 74
-57 18 0 33 -5 33 -11 0 -6 -7 -8 -16 -5 -19 7 47 -70 93 -108 55 -47 53 -72
-14 -151 -20 -24 -32 -47 -29 -57 2 -10 -1 -18 -8 -18 -16 0 -110 -120 -101
-128 4 -4 13 2 22 13 8 11 19 19 24 17 5 -1 9 2 9 7 0 5 10 9 23 9 25 0 94 22
182 59 104 43 106 44 126 107 34 101 104 249 145 306 21 30 81 96 132 147 62
61 89 94 81 99 -14 8 -152 10 -611 6z m-13 -342 c3 -5 -1 -10 -9 -10 -8 0 -18
5 -21 10 -3 6 1 10 9 10 8 0 18 -4 21 -10z"/>
<path d="M3580 4670 l-55 -7 45 -3 c25 -2 50 -4 55 -5 6 -2 37 -3 70 -4 53 -2
57 -3 38 -14 -16 -9 -20 -16 -13 -27 8 -12 12 -11 32 6 30 28 57 21 32 -7 -13
-15 -15 -22 -6 -31 14 -14 16 -48 2 -48 -5 0 -14 8 -19 18 -9 14 -10 11 -11
-15 0 -18 4 -33 9 -33 8 0 51 -72 51 -85 0 -3 -4 -5 -10 -5 -5 0 -10 7 -10 15
0 7 -8 18 -17 24 -10 5 -16 13 -13 18 3 4 -3 9 -12 11 -24 5 -23 -11 2 -33 14
-12 18 -25 14 -41 -4 -17 -2 -24 8 -24 8 0 15 -6 15 -12 0 -15 48 -141 69
-181 7 -16 14 -40 14 -53 0 -14 6 -40 14 -59 12 -27 23 -36 58 -45 23 -7 59
-20 79 -30 44 -23 212 -81 217 -75 10 9 -13 48 -83 140 -49 65 -75 109 -75
126 0 20 25 51 110 133 61 59 110 112 110 117 0 25 -128 -12 -278 -82 -35 -16
-72 -27 -81 -24 -25 8 -131 113 -131 130 0 17 40 39 87 50 18 3 35 11 38 16 8
12 138 11 195 -2 25 -6 73 -13 106 -16 54 -4 67 -2 105 20 58 35 119 95 119
118 0 16 -8 19 -42 19 -526 6 -794 6 -838 0z"/>
<path d="M1713 4618 c1 -40 5 -48 20 -48 16 0 17 3 7 15 -10 12 -8 16 11 24
l24 10 -23 0 c-14 1 -26 10 -32 24 -7 17 -8 12 -7 -25z"/>
<path d="M1600 4629 c0 -5 5 -7 10 -4 6 3 10 8 10 11 0 2 -4 4 -10 4 -5 0 -10
-5 -10 -11z"/>
<path d="M650 4580 c0 -5 5 -10 10 -10 6 0 10 5 10 10 0 6 -4 10 -10 10 -5 0
-10 -4 -10 -10z"/>
<path d="M3640 4542 c0 -5 7 -15 15 -22 8 -7 15 -8 15 -2 0 5 -7 15 -15 22 -8
7 -15 8 -15 2z"/>
<path d="M1611 4524 c0 -11 3 -14 6 -6 3 7 2 16 -1 19 -3 4 -6 -2 -5 -13z"/>
<path d="M3200 4434 c0 -3 21 -30 48 -59 71 -78 111 -198 112 -332 0 -87 -12
-93 -57 -30 -50 68 -103 120 -181 177 -88 63 -104 58 -67 -21 13 -30 25 -62
25 -71 0 -9 5 -20 10 -23 6 -4 10 -53 10 -115 0 -94 -3 -117 -24 -165 -14 -30
-36 -70 -50 -88 -14 -19 -23 -37 -19 -40 3 -4 1 -7 -5 -7 -17 0 -15 -25 3 -40
8 -7 13 -16 10 -20 -3 -5 8 -3 25 3 18 7 30 19 30 29 0 14 8 18 32 18 27 0 48
16 145 115 l113 115 67 0 c93 0 141 16 185 60 l37 37 -20 58 c-11 32 -33 77
-49 99 -29 43 -200 205 -236 224 -12 6 -40 27 -63 47 -38 31 -81 46 -81 29z
m-155 -764 c3 -5 1 -10 -4 -10 -6 0 -11 5 -11 10 0 6 2 10 4 10 3 0 8 -4 11
-10z"/>
<path d="M1670 4383 c-36 -24 -66 -49 -66 -54 -1 -5 -2 -13 -3 -19 0 -5 -13
-10 -27 -10 -14 0 -23 -4 -19 -10 3 -5 -2 -18 -11 -29 -10 -12 -18 -40 -20
-70 -2 -43 0 -49 14 -44 15 5 15 4 -1 -8 -14 -11 -17 -31 -18 -94 -1 -44 -6
-86 -12 -93 -11 -14 5 -32 31 -32 20 0 14 -20 -10 -30 -18 -7 -12 -9 30 -9
l54 -1 109 -107 c173 -169 254 -222 337 -223 47 0 55 15 15 31 -41 15 -119
107 -159 188 -28 56 -38 89 -42 141 -5 76 12 189 36 235 24 45 41 95 32 95
-35 0 -184 -109 -216 -158 -33 -52 -97 -121 -105 -116 -5 3 -9 54 -9 113 0 98
2 112 29 163 15 31 49 83 74 116 40 53 48 74 28 71 -3 0 -35 -21 -71 -46z"/>
<path d="M1851 4384 c-12 -14 -11 -16 4 -12 10 1 20 9 23 16 5 17 -10 15 -27
-4z"/>
<path d="M1865 4352 c-22 -12 -26 -17 -14 -20 9 -1 32 6 50 17 25 16 29 21 14
20 -11 -1 -33 -8 -50 -17z"/>
<path d="M1797 4342 c-19 -21 -22 -32 -7 -32 6 0 10 7 10 15 0 7 8 19 18 24 9
6 12 11 6 11 -6 0 -18 -8 -27 -18z"/>
<path d="M894 3856 c-11 -8 -41 -23 -65 -32 -24 -10 -69 -34 -99 -54 -30 -21
-69 -45 -87 -54 -31 -15 -93 -93 -93 -115 0 -18 18 -12 22 7 2 9 5 -5 5 -33 1
-27 -3 -58 -9 -68 -5 -10 -7 -26 -4 -34 6 -14 9 -14 26 2 11 10 20 24 20 32 0
7 5 12 12 11 6 -2 24 15 39 37 26 38 236 256 272 283 38 29 1 46 -39 18z
m-274 -211 c0 -8 -7 -15 -15 -15 -16 0 -20 12 -8 23 11 12 23 8 23 -8z"/>
<path d="M4045 3860 c3 -5 14 -10 23 -10 15 0 15 2 2 10 -20 13 -33 13 -25 0z"/>
<path d="M964 3699 c-136 -134 -254 -277 -254 -308 0 -14 2 -14 10 -1 8 12 10
11 10 -6 0 -12 -9 -33 -20 -47 -37 -47 -18 -72 24 -30 29 29 31 26 14 -29 -9
-31 -16 -38 -30 -35 -27 7 -34 -13 -11 -32 17 -13 22 -31 26 -97 5 -83 -4
-127 -18 -85 -7 22 -20 27 -30 12 -3 -5 1 -16 9 -23 8 -8 15 -23 17 -33 3 -13
9 -8 24 21 12 21 27 39 34 39 18 0 33 -29 72 -145 31 -94 146 -312 215 -409
86 -121 124 -161 265 -278 70 -57 129 -113 132 -124 3 -10 10 -19 16 -19 17 0
13 46 -5 61 -9 7 -20 22 -24 34 -5 11 -25 58 -45 105 -68 158 -86 221 -100
355 -20 175 -19 264 0 271 15 6 75 -43 75 -62 0 -18 92 -135 104 -131 16 6 11
65 -9 86 -64 72 -119 318 -96 436 5 27 7 52 4 55 -8 8 -42 -42 -74 -110 -17
-36 -39 -81 -49 -100 -33 -65 -63 -193 -69 -300 -6 -102 -7 -105 -30 -105 -20
0 -32 15 -75 102 -29 56 -63 144 -76 195 -23 84 -25 112 -24 283 0 223 17 312
91 477 24 55 41 103 38 106 -3 3 -66 -55 -141 -129z"/>
<path d="M3870 3817 c0 -7 4 -17 9 -22 17 -20 70 -163 97 -265 26 -96 28 -120
28 -285 1 -168 -1 -187 -28 -280 -31 -109 -105 -272 -137 -301 -29 -27 -39 -6
-39 89 0 65 -3 80 -20 94 -16 14 -19 25 -14 50 4 19 2 39 -5 46 -6 8 -13 31
-17 53 -3 21 -10 41 -15 42 -5 2 -9 10 -9 19 0 22 -25 10 -26 -13 -1 -10 -2
-21 -4 -24 -1 -3 -4 -14 -5 -25 -2 -11 -6 -28 -10 -37 -4 -10 -3 -18 3 -18 5
0 13 -7 16 -15 4 -11 -3 -19 -19 -25 -30 -11 -34 -30 -5 -23 19 5 20 0 20
-101 0 -88 3 -106 15 -106 18 0 19 12 3 28 -9 9 -8 17 2 37 7 14 18 25 24 25
6 0 5 -5 -2 -12 -15 -15 -16 -48 -2 -48 13 0 6 -48 -18 -130 -22 -76 -36 -87
-27 -21 6 41 4 52 -5 46 -14 -9 -7 -129 9 -149 5 -6 11 -31 14 -56 3 -25 8
-57 12 -72 6 -24 4 -28 -14 -28 -11 0 -21 5 -21 10 0 6 -7 10 -16 10 -13 0
-11 -5 7 -25 30 -31 36 -31 66 3 13 15 45 48 70 75 142 147 255 334 337 557
44 118 45 120 56 120 27 0 141 -296 166 -435 8 -44 20 -105 26 -135 6 -30 13
-140 17 -244 l6 -190 27 70 c24 62 34 109 69 308 5 32 16 71 24 87 30 57 13
329 -26 418 -10 24 -19 51 -19 60 0 9 -11 37 -25 63 -14 26 -25 54 -25 62 0 7
-15 36 -33 63 -19 28 -50 80 -71 117 -52 92 -110 179 -172 256 -54 67 -275
290 -287 290 -4 0 -7 -6 -7 -13z m-124 -904 c-11 -11 -19 6 -11 24 8 17 8 17
12 0 3 -10 2 -21 -1 -24z m-22 -55 c-3 -10 -1 -18 5 -18 16 0 14 -23 -4 -46
-13 -17 -14 -13 -15 46 0 45 3 60 10 50 5 -8 7 -23 4 -32z m24 -431 c2 -10 -3
-17 -12 -17 -10 0 -16 9 -16 21 0 24 23 21 28 -4z"/>
<path d="M4140 3795 c0 -16 -4 -24 -11 -20 -6 4 -5 -2 3 -14 7 -12 18 -21 25
-21 7 0 13 -3 13 -7 0 -5 21 -30 46 -58 25 -27 66 -79 91 -115 26 -36 65 -90
88 -120 38 -50 58 -82 106 -173 25 -47 34 -14 10 36 -12 24 -24 65 -27 92 -4
28 -15 69 -26 93 -10 24 -18 53 -18 63 0 53 -69 142 -135 176 -27 14 -59 33
-70 44 -11 10 -37 25 -58 34 l-37 15 0 -25z"/>
<path d="M1275 3770 c-14 -23 -23 -45 -20 -51 10 -15 -18 -70 -33 -64 -8 3
-11 -4 -7 -23 15 -90 24 -173 19 -186 -8 -21 -21 -20 -27 2 -3 11 -5 8 -6 -9
0 -14 3 -29 9 -35 6 -6 5 -19 -5 -37 -7 -15 -10 -27 -4 -27 5 0 9 5 9 10 0 6
7 10 15 10 8 0 15 5 15 10 0 6 5 10 10 10 6 0 25 16 42 36 l31 35 88 -3 c64
-2 92 1 101 11 11 11 9 15 -7 25 -71 41 -157 173 -177 272 -6 30 -15 54 -19
54 -5 0 -20 -18 -34 -40z"/>
<path d="M3646 3773 c-14 -84 -49 -174 -78 -202 -19 -19 -26 -31 -18 -36 16
-10 -7 -35 -33 -35 -44 0 15 -37 78 -49 40 -7 68 -20 88 -39 26 -24 133 -230
152 -291 7 -22 8 -22 17 -7 14 25 -10 304 -34 401 -11 47 -43 123 -76 187 -63
118 -85 135 -96 71z"/>
<path d="M3309 3701 c-27 -27 -31 -61 -8 -61 5 0 9 -6 9 -14 0 -24 -41 -46
-85 -47 -22 0 -49 -4 -60 -9 -17 -8 -16 -9 9 -9 22 -1 27 -5 22 -18 -24 -60
141 -35 174 27 16 31 17 125 1 144 -19 22 -28 20 -62 -13z"/>
<path d="M1641 3666 c-10 -12 -9 -20 4 -40 9 -14 14 -30 10 -36 -4 -6 -1 -18
7 -27 10 -13 11 -17 0 -21 -10 -3 -10 -7 -1 -18 18 -22 157 -20 166 2 9 23
-21 43 -77 50 -25 3 -57 14 -70 24 -20 15 -22 21 -12 49 9 25 8 31 -2 31 -8 0
-19 -6 -25 -14z"/>
<path d="M1192 3610 c0 -14 2 -19 5 -12 2 6 2 18 0 25 -3 6 -5 1 -5 -13z"/>
<path d="M1167 3556 c-4 -10 -5 -21 -2 -24 9 -9 17 6 13 25 -3 17 -4 17 -11
-1z"/>
<path d="M534 3544 c-4 -10 -9 -22 -11 -26 -2 -5 0 -8 5 -8 10 0 24 41 17 48
-3 3 -8 -4 -11 -14z"/>
<path d="M2575 3460 c-33 -16 -65 -30 -71 -30 -6 0 -37 11 -68 25 -71 31 -131
34 -139 5 -4 -15 0 -20 16 -21 12 0 16 -3 10 -6 -16 -6 -17 -33 -2 -33 6 0 24
-9 41 -21 37 -27 36 -65 -2 -62 -37 3 -90 -7 -90 -17 0 -4 14 -14 30 -22 35
-15 36 -19 10 -36 -17 -10 -20 -10 -20 3 0 17 -9 19 -30 5 -13 -9 -12 -12 4
-22 19 -11 19 -11 0 -26 -17 -13 -15 -14 28 -8 50 6 43 9 170 -76 38 -25 49
-23 117 24 60 41 64 42 155 46 101 5 98 6 146 -58 26 -35 43 -15 48 58 5 64 5
64 -63 109 -42 28 -48 28 -215 20 -63 -3 -64 20 -3 58 43 26 58 29 138 32 108
3 116 15 36 56 -77 38 -162 37 -246 -3z"/>
<path d="M2225 3460 c3 -5 10 -10 16 -10 5 0 9 5 9 10 0 6 -7 10 -16 10 -8 0
-12 -4 -9 -10z"/>
<path d="M1677 3415 c-38 -13 -77 -31 -88 -41 -19 -17 -18 -18 18 -35 21 -9
32 -18 24 -18 -8 -1 -12 -3 -9 -6 3 -3 29 7 58 22 72 37 147 42 225 13 80 -30
111 -31 107 -5 -15 87 -185 122 -335 70z m-14 -49 c14 -11 15 -15 3 -19 -8 -3
-17 1 -20 8 -3 8 -12 12 -21 9 -8 -3 -15 -1 -15 5 0 15 31 13 53 -3z"/>
<path d="M3150 3431 c-30 -4 -42 -8 -27 -9 23 -2 27 -6 22 -21 -5 -16 2 -19
52 -25 32 -3 81 -17 108 -31 60 -29 133 -99 141 -134 8 -34 65 -153 71 -148 2
3 0 44 -5 93 -8 79 -14 96 -51 155 -37 58 -49 70 -101 93 -66 30 -127 37 -210
27z"/>
<path d="M3070 3350 c-14 -11 -20 -20 -14 -20 6 0 14 3 18 8 4 4 22 12 39 19
30 11 30 12 7 12 -14 0 -36 -8 -50 -19z"/>
<path d="M2200 3310 c8 -5 22 -10 30 -10 13 0 13 1 0 10 -8 5 -22 10 -30 10
-13 0 -13 -1 0 -10z"/>
<path d="M1568 3245 c-25 -34 -22 -43 3 -11 12 15 20 29 18 31 -2 1 -12 -7
-21 -20z"/>
<path d="M441 3244 c0 -11 3 -14 6 -6 3 7 2 16 -1 19 -3 4 -6 -2 -5 -13z"/>
<path d="M1886 3228 c3 -18 9 -58 15 -88 5 -30 11 -67 13 -82 3 -16 14 -45 26
-66 24 -43 24 -85 -1 -90 -8 -1 -36 19 -62 45 -26 26 -47 42 -47 36 0 -7 5
-15 10 -18 16 -10 12 -38 -5 -31 -21 8 -19 -6 8 -45 13 -19 29 -33 36 -31 7 1
9 -2 6 -8 -4 -7 2 -14 13 -17 38 -10 39 -53 1 -53 -10 0 -27 -9 -37 -20 -21
-25 -25 -63 -6 -56 8 3 18 -4 24 -14 6 -11 20 -20 30 -20 11 0 28 -4 38 -10
41 -22 136 -40 214 -40 78 1 191 18 216 34 27 16 10 35 -45 51 -170 50 -280
167 -303 324 -14 91 -38 147 -83 191 -52 50 -68 52 -61 8z"/>
<path d="M3057 3218 c-46 -44 -49 -51 -61 -158 -9 -85 -37 -148 -92 -211 -29
-34 -51 -66 -48 -70 3 -5 -2 -9 -11 -9 -15 0 -55 -19 -65 -31 -3 -4 -14 -9
-25 -12 -13 -3 -9 -5 13 -6 32 -1 32 -1 16 -26 -13 -20 -14 -28 -4 -40 11 -13
7 -15 -26 -16 -38 -1 -39 -1 -10 -9 16 -5 59 -9 95 -9 171 1 354 67 448 161
48 48 54 58 39 64 -11 4 -45 -6 -89 -28 -40 -20 -91 -39 -114 -43 -39 -6 -43
-5 -43 14 0 11 11 26 28 35 15 8 41 22 57 32 39 21 126 126 159 191 27 55 33
104 16 147 -17 46 -37 29 -86 -69 -47 -94 -119 -192 -155 -209 -35 -17 -39 6
-13 92 13 46 28 109 33 140 5 32 12 69 16 85 11 42 -23 35 -78 -15z"/>
<path d="M3635 3209 c-10 -15 3 -25 16 -12 7 7 7 13 1 17 -6 3 -14 1 -17 -5z"/>
<path d="M3666 3177 c3 -10 9 -15 12 -12 3 3 0 11 -7 18 -10 9 -11 8 -5 -6z"/>
<path d="M1145 3160 c-3 -5 -1 -10 4 -10 6 0 11 5 11 10 0 6 -2 10 -4 10 -3 0
-8 -4 -11 -10z"/>
<path d="M3645 3141 c-3 -5 -1 -12 5 -16 5 -3 10 1 10 9 0 18 -6 21 -15 7z"/>
<path d="M2283 3083 c9 -2 23 -2 30 0 6 3 -1 5 -18 5 -16 0 -22 -2 -12 -5z"/>
<path d="M2677 3080 c-16 -5 -59 -27 -96 -50 l-68 -41 -79 41 c-43 22 -84 40
-90 40 -7 0 -19 -20 -27 -45 -15 -43 -15 -44 6 -51 27 -9 46 -33 47 -59 0 -21
60 -112 87 -132 25 -19 80 -16 101 5 11 11 34 41 52 68 49 73 88 104 127 104
29 0 33 -3 33 -25 0 -34 23 -32 54 6 20 23 26 42 26 78 0 44 -2 48 -33 59 -38
14 -98 14 -140 2z m-314 -77 c-7 -2 -19 -2 -25 0 -7 3 -2 5 12 5 14 0 19 -2
13 -5z"/>
<path d="M2267 3053 c-4 -3 -7 -15 -7 -25 0 -26 24 -17 28 10 3 21 -8 29 -21
15z"/>
<path d="M3602 3030 c0 -14 2 -19 5 -12 2 6 2 18 0 25 -3 6 -5 1 -5 -13z"/>
<path d="M510 3024 c0 -8 5 -12 10 -9 6 4 8 11 5 16 -9 14 -15 11 -15 -7z"/>
<path d="M1790 3030 c0 -5 5 -10 10 -10 6 0 10 5 10 10 0 6 -4 10 -10 10 -5 0
-10 -4 -10 -10z"/>
<path d="M671 2948 c0 -7 4 -22 9 -33 8 -18 9 -17 9 7 1 15 -3 30 -9 33 -5 3
-10 0 -9 -7z"/>
<path d="M2230 2939 c0 -5 5 -7 10 -4 6 3 10 8 10 11 0 2 -4 4 -10 4 -5 0 -10
-5 -10 -11z"/>
<path d="M3557 2883 c-4 -3 -7 -11 -7 -17 0 -6 5 -5 12 2 6 6 9 14 7 17 -3 3
-9 2 -12 -2z"/>
<path d="M630 2813 c0 -10 5 -25 10 -33 8 -12 10 -9 10 12 0 15 -4 30 -10 33
-5 3 -10 -2 -10 -12z"/>
<path d="M1810 2790 c0 -5 10 -10 23 -10 18 0 19 2 7 10 -19 13 -30 13 -30 0z"/>
<path d="M2650 2700 c-12 -8 -11 -10 7 -10 12 0 25 5 28 10 8 13 -15 13 -35 0z"/>
<path d="M4153 2563 c-31 -68 -112 -199 -151 -244 -21 -24 -59 -74 -85 -111
-49 -70 -166 -188 -254 -257 -53 -41 -71 -61 -55 -61 5 0 7 -13 4 -30 -3 -19
0 -30 7 -30 7 0 9 5 6 10 -4 6 7 10 24 10 21 0 31 5 31 16 0 8 4 13 9 10 24
-15 193 102 290 200 48 49 76 56 85 22 12 -47 6 -405 -10 -522 -8 -65 -13
-120 -11 -122 9 -9 79 116 107 191 17 44 39 96 49 116 35 65 44 155 37 387 -8
292 -18 393 -39 426 -10 14 -20 26 -22 26 -3 0 -13 -17 -22 -37z m-456 -629
c-3 -3 -12 -4 -19 -1 -8 3 -5 6 6 6 11 1 17 -2 13 -5z"/>
<path d="M781 2534 c0 -11 3 -14 6 -6 3 7 2 16 -1 19 -3 4 -6 -2 -5 -13z"/>
<path d="M2964 2519 c-59 -17 -57 -1 -54 -399 0 -8 -1 -36 -3 -62 -2 -27 -2
-48 -1 -48 2 0 11 26 20 58 9 31 20 62 24 67 5 6 15 44 24 85 8 41 20 91 26
110 19 63 30 173 18 187 -12 15 -11 15 -54 2z"/>
<path d="M1980 2506 c0 -8 5 -18 10 -21 6 -3 10 3 10 14 0 12 -4 21 -10 21 -5
0 -10 -6 -10 -14z"/>
<path d="M2027 2438 c3 -59 1 -79 -6 -68 -8 12 -11 8 -11 -18 0 -19 6 -35 14
-38 8 -3 14 -20 14 -42 0 -86 69 -311 91 -298 10 6 21 380 14 454 -6 57 -21
72 -89 86 l-31 7 4 -83z"/>
<path d="M2665 2480 c-22 -5 -100 -10 -172 -12 -73 -2 -128 -4 -123 -6 18 -6
10 -22 -15 -32 -30 -11 -24 -34 13 -49 28 -11 225 -8 273 4 35 9 59 -16 59
-63 0 -46 12 -69 27 -50 21 28 62 193 50 204 -10 10 -74 12 -112 4z m-278 -86
c-3 -3 -12 -4 -19 -1 -8 3 -5 6 6 6 11 1 17 -2 13 -5z"/>
<path d="M2874 2210 c0 -151 2 -213 3 -137 2 75 2 199 0 275 -1 75 -3 13 -3
-138z"/>
<path d="M2288 2463 c12 -2 32 -2 45 0 12 2 2 4 -23 4 -25 0 -35 -2 -22 -4z"/>
<path d="M761 2433 c0 -6 -4 -20 -7 -30 -5 -14 -4 -15 5 -7 7 7 11 20 8 30 -3
11 -5 14 -6 7z"/>
<path d="M1550 2410 c0 -5 5 -10 10 -10 6 0 10 5 10 10 0 6 -4 10 -10 10 -5 0
-10 -4 -10 -10z"/>
<path d="M1580 2381 c0 -5 5 -13 10 -16 6 -3 10 -2 10 4 0 5 -4 13 -10 16 -5
3 -10 2 -10 -4z"/>
<path d="M900 2336 c0 -14 5 -26 10 -26 13 0 13 -26 -2 -49 -15 -24 -3 -55 18
-47 14 5 16 1 11 -21 -3 -16 -9 -36 -12 -45 -5 -12 -2 -18 8 -18 8 0 40 -27
70 -60 29 -33 57 -60 60 -60 4 0 35 -23 69 -51 69 -56 305 -179 344 -179 32 0
30 14 -7 42 -17 13 -43 34 -58 48 -15 14 -53 44 -84 68 -94 71 -175 152 -258
260 -44 56 -82 102 -85 102 -4 0 -3 -15 0 -33 5 -26 3 -34 -8 -34 -17 0 -38
79 -29 106 4 12 3 13 -5 3 -7 -11 -12 -10 -26 3 -15 15 -16 15 -16 -9z"/>
<path d="M3411 2348 c-1 -9 -10 -32 -20 -50 -22 -39 -66 -172 -80 -243 -5 -27
-17 -81 -26 -120 -9 -38 -24 -99 -32 -135 -9 -36 -19 -94 -23 -130 -7 -59 -24
-144 -50 -240 -14 -56 -56 -170 -84 -230 -32 -70 -130 -171 -296 -304 -142
-114 -260 -218 -271 -237 -16 -31 -34 -23 -95 41 -58 61 -206 180 -224 180 -6
0 -10 5 -10 10 0 6 -8 10 -18 10 -9 0 -22 10 -27 23 -6 12 -19 22 -30 22 -13
0 -19 6 -17 17 1 9 -11 26 -27 38 -24 17 -35 19 -51 10 -11 -6 -20 -16 -20
-23 0 -7 -14 -20 -32 -30 -32 -18 -30 -30 8 -41 14 -4 28 -1 38 10 14 13 19
14 32 3 14 -11 14 -13 0 -21 -8 -5 -18 -29 -22 -53 -3 -25 -10 -45 -14 -45 -4
0 -10 -9 -13 -20 -7 -27 26 -46 43 -25 19 23 36 18 62 -15 13 -17 45 -56 71
-88 95 -111 233 -313 285 -414 18 -38 36 -68 38 -68 3 0 12 16 20 36 33 79
243 392 315 469 15 17 42 47 59 68 26 30 35 35 46 26 25 -20 14 -119 -27 -252
-37 -120 1 -99 66 38 24 49 56 128 71 175 45 139 126 449 159 605 10 44 24
107 32 140 9 33 19 89 24 125 4 36 19 119 34 185 14 66 33 154 41 195 8 41 21
98 29 125 22 80 48 222 42 237 -4 9 -6 8 -6 -4z m-1336 -1368 c3 -5 2 -10 -4
-10 -5 0 -13 5 -16 10 -3 6 -2 10 4 10 5 0 13 -4 16 -10z m25 -156 c0 -14 -4
-23 -10 -19 -5 3 -10 15 -10 26 0 10 5 19 10 19 6 0 10 -12 10 -26z"/>
<path d="M3600 2314 c0 -10 5 -26 10 -34 8 -11 9 -7 4 15 -8 37 -14 45 -14 19z"/>
<path d="M1846 2291 c-4 -6 -3 -18 2 -27 8 -15 10 -14 16 2 8 20 -8 42 -18 25z"/>
<path d="M3136 2213 c-4 -32 -13 -87 -22 -123 -9 -36 -24 -117 -35 -180 -73
-452 -122 -594 -248 -721 -74 -73 -115 -96 -199 -109 -108 -18 -311 -4 -338
23 -4 4 -14 7 -22 7 -8 0 -22 8 -31 18 -24 28 -56 33 -75 11 -20 -24 -20 -39
0 -39 9 0 12 -5 8 -12 -6 -10 -4 -10 7 0 16 14 59 16 59 2 0 -5 8 -10 18 -10
16 -1 16 -1 0 -14 -26 -19 -22 -36 7 -36 14 0 25 -4 25 -8 0 -4 24 -17 53 -27
63 -24 218 -26 317 -5 130 27 236 109 316 246 76 130 153 448 154 639 1 39 7
99 15 135 16 73 20 260 6 260 -5 0 -12 -26 -15 -57z"/>
<path d="M3570 2160 c0 -5 5 -10 11 -10 5 0 7 5 4 10 -3 6 -8 10 -11 10 -2 0
-4 -4 -4 -10z"/>
<path d="M889 2018 c-2 -18 -2 -100 1 -183 l6 -150 2 183 c2 172 -1 223 -9
150z"/>
<path d="M1730 1833 c0 -12 5 -25 10 -28 13 -8 13 15 0 35 -8 12 -10 11 -10
-7z"/>
<path d="M3820 1758 c-46 -28 -133 -73 -194 -100 -61 -27 -120 -53 -131 -58
-11 -5 -33 -11 -49 -12 -29 -3 -30 -5 -34 -63 -2 -33 -8 -64 -13 -70 -13 -13
-11 -95 2 -95 7 0 8 -11 4 -29 -3 -16 -2 -38 4 -48 5 -10 12 -26 15 -37 5 -15
9 -16 21 -6 20 17 19 4 -3 -28 -29 -42 -34 -52 -25 -52 5 0 16 12 25 28 9 15
33 45 53 67 20 22 55 65 78 96 73 95 131 159 146 159 19 0 9 -203 -14 -278 -9
-29 -15 -65 -13 -80 3 -26 5 -24 51 33 26 33 63 92 82 131 68 135 128 452 92
482 -10 9 -33 0 -97 -40z"/>
<path d="M1180 1725 c7 -8 17 -15 22 -15 5 0 3 7 -6 15 -8 8 -18 15 -22 15 -3
0 -1 -7 6 -15z"/>
<path d="M1246 1685 c10 -8 14 -15 8 -15 -7 0 -14 -10 -18 -22 -4 -18 -8 -20
-18 -10 -17 17 -28 15 -28 -6 0 -10 11 -25 25 -32 30 -16 32 -44 6 -66 -17
-15 -17 -19 -3 -55 15 -39 32 -44 32 -9 0 33 27 29 62 -8 67 -72 247 -306 277
-362 26 -47 109 -116 123 -102 8 8 -1 57 -30 169 -22 87 -45 196 -52 243 -23
173 -20 163 -70 178 -99 28 -237 75 -273 93 -46 23 -69 25 -41 4z"/>
<path d="M1782 1600 c0 -14 2 -19 5 -12 2 6 2 18 0 25 -3 6 -5 1 -5 -13z"/>
<path d="M910 1548 c0 -15 5 -30 10 -33 13 -8 13 25 0 45 -8 12 -10 9 -10 -12z"/>
<path d="M3377 1513 c-4 -3 -7 -13 -7 -22 1 -13 3 -13 11 2 11 19 8 33 -4 20z"/>
<path d="M2779 1433 c-29 -43 -70 -101 -91 -130 -42 -58 -45 -65 -23 -57 8 4
15 10 15 16 0 5 7 16 15 24 19 19 19 7 1 -28 -17 -32 -15 -33 22 -14 34 18 85
72 105 111 19 39 33 155 18 155 -6 0 -34 -35 -62 -77z"/>
<path d="M2210 1438 c0 -11 -8 -18 -20 -18 -11 0 -20 -5 -20 -11 0 -5 4 -8 9
-5 4 3 13 -6 20 -21 10 -21 9 -28 -1 -34 -7 -5 -8 -9 -3 -9 6 0 16 -13 23 -29
13 -30 93 -91 119 -91 32 0 -1 73 -62 140 -13 14 -32 41 -44 60 -13 22 -21 29
-21 18z"/>
<path d="M1230 1416 c0 -9 5 -16 10 -16 6 0 10 4 10 9 0 6 -4 13 -10 16 -5 3
-10 -1 -10 -9z"/>
<path d="M1781 1394 c0 -11 3 -14 6 -6 3 7 2 16 -1 19 -3 4 -6 -2 -5 -13z"/>
<path d="M1206 1362 c-10 -9 -7 -114 3 -108 5 3 8 20 6 38 -3 43 4 65 16 46
12 -18 11 -98 -1 -98 -17 0 -11 -30 11 -61 27 -38 54 -39 45 -1 -4 15 -11 52
-16 82 -13 80 -20 98 -40 103 -11 3 -21 2 -24 -1z m59 -172 c3 -5 1 -10 -4
-10 -6 0 -11 5 -11 10 0 6 2 10 4 10 3 0 8 -4 11 -10z"/>
<path d="M1800 1286 c0 -8 4 -17 9 -20 5 -4 7 3 4 14 -6 23 -13 26 -13 6z"/>
<path d="M2110 1220 c0 -24 21 -70 32 -70 13 0 9 26 -6 39 -8 7 -12 21 -9 31
3 11 0 20 -6 20 -6 0 -11 -9 -11 -20z"/>
<path d="M3390 1205 c0 -9 6 -12 15 -9 8 4 15 10 15 15 0 5 -7 9 -15 9 -8 0
-15 -7 -15 -15z"/>
<path d="M1950 1080 c0 -20 24 -60 37 -60 21 0 15 25 -12 48 -14 12 -25 18
-25 12z"/>
<path d="M2210 1070 c-8 -5 -11 -12 -8 -16 10 -9 38 3 38 16 0 12 -10 13 -30
0z"/>
<path d="M1872 990 c0 -14 2 -19 5 -12 2 6 2 18 0 25 -3 6 -5 1 -5 -13z"/>
<path d="M1901 894 c0 -11 3 -14 6 -6 3 7 2 16 -1 19 -3 4 -6 -2 -5 -13z"/>
<path d="M1930 871 c0 -5 7 -23 16 -40 l16 -33 21 21 c21 21 21 21 2 35 -24
18 -55 27 -55 17z"/>
<path d="M1992 675 c0 -32 4 -45 14 -45 10 0 13 -7 8 -25 -5 -18 -2 -25 9 -25
10 0 13 -7 10 -20 -3 -11 0 -20 6 -20 6 0 11 -7 11 -15 0 -7 7 -18 16 -23 9
-5 15 -13 15 -18 -1 -17 10 -44 20 -44 5 0 9 7 9 15 0 8 -4 15 -10 15 -5 0
-10 14 -10 31 0 22 -5 32 -20 36 -22 6 -27 32 -9 50 16 16 1 63 -18 56 -13 -5
-15 -1 -9 21 5 21 2 32 -11 42 -28 21 -31 17 -31 -31z"/>
</g>
</svg>
